<svg width="36" height="38" viewBox="0 0 36 38" fill="none" xmlns="http://www.w3.org/2000/svg">
<rect y="2" width="36" height="36" rx="6" fill="#F2994A"/>
<path d="M19.6 13.256C20.832 13.256 21.808 13.528 22.528 14.072C23.248 14.6 23.608 15.344 23.608 16.304C23.608 16.96 23.416 17.568 23.032 18.128C22.664 18.688 22.224 19.184 21.712 19.616C21.2 20.048 20.496 20.584 19.6 21.224C18.448 22.024 17.64 22.664 17.176 23.144H22.36C22.792 23.144 23.112 23.112 23.32 23.048C23.544 22.984 23.696 22.88 23.776 22.736C23.856 22.592 23.92 22.368 23.968 22.064H24.472C24.472 23.952 24.504 25.304 24.568 26.12C24.216 26.04 23.024 26 20.992 26H14.008V25.544C14.216 25.32 14.624 24.936 15.232 24.392C16.16 23.544 16.928 22.792 17.536 22.136C18.16 21.464 18.696 20.696 19.144 19.832C19.608 18.952 19.84 18.04 19.84 17.096C19.84 16.248 19.648 15.632 19.264 15.248C18.896 14.848 18.344 14.648 17.608 14.648C16.936 14.648 16.336 14.808 15.808 15.128C15.296 15.432 14.824 15.888 14.392 16.496L13.984 16.256C15.168 14.256 17.04 13.256 19.6 13.256Z" fill="white"/>
</svg>
