<svg width="36" height="39" viewBox="0 0 36 39" fill="none" xmlns="http://www.w3.org/2000/svg">
<rect y="3" width="36" height="36" rx="6" fill="#F2994A"/>
<path d="M22.24 12.68C22.24 14.552 22.272 15.896 22.336 16.712C22 16.632 20.888 16.592 19 16.592H15.304L14.92 20.696C15.848 20.056 17.056 19.736 18.544 19.736C20.08 19.736 21.24 20.088 22.024 20.792C22.824 21.496 23.224 22.408 23.224 23.528C23.224 24.712 22.76 25.76 21.832 26.672C20.904 27.6 19.704 28.312 18.232 28.808C16.776 29.304 15.272 29.552 13.72 29.552V29.12C14.728 29.104 15.688 28.88 16.6 28.448C17.512 28.032 18.248 27.408 18.808 26.576C19.368 25.76 19.648 24.792 19.648 23.672C19.648 22.664 19.408 21.896 18.928 21.368C18.464 20.824 17.784 20.552 16.888 20.552C16.456 20.552 16.072 20.608 15.736 20.72C15.4 20.832 15.064 21.008 14.728 21.248L14.392 21.032L15.16 13.52C15.48 13.584 15.912 13.616 16.456 13.616H20.416C20.88 13.616 21.2 13.552 21.376 13.424C21.568 13.28 21.688 13.032 21.736 12.68H22.24Z" fill="white"/>
</svg>
