<svg width="36" height="38" viewBox="0 0 36 38" fill="none" xmlns="http://www.w3.org/2000/svg">
<rect y="2" width="36" height="36" rx="6" fill="#F2994A"/>
<path d="M19.768 23.672C19.768 24.36 19.896 24.84 20.152 25.112C20.408 25.368 20.856 25.496 21.496 25.496V26C19.768 25.936 18.664 25.904 18.184 25.904C17.656 25.904 16.504 25.928 14.728 25.976L14.056 26V25.496C14.808 25.496 15.368 25.352 15.736 25.064C16.12 24.776 16.312 24.264 16.312 23.528V17.672C16.312 16.904 16.24 16.344 16.096 15.992C15.968 15.624 15.744 15.384 15.424 15.272C15.104 15.144 14.616 15.08 13.96 15.08V14.552C15.352 14.52 16.496 14.416 17.392 14.24C18.288 14.048 19.08 13.744 19.768 13.328V23.672Z" fill="white"/>
</svg>
