<svg width="36" height="36" viewBox="0 0 36 36" fill="none" xmlns="http://www.w3.org/2000/svg">
<rect width="36" height="36" rx="6" fill="#F2994A"/>
<path d="M21.04 15.44C21.904 15.44 22.688 15.648 23.392 16.064C24.112 16.48 24.68 17.088 25.096 17.888C25.528 18.672 25.744 19.584 25.744 20.624C25.744 21.808 25.472 22.832 24.928 23.696C24.4 24.56 23.68 25.216 22.768 25.664C21.856 26.112 20.856 26.336 19.768 26.336C18.008 26.336 16.624 25.736 15.616 24.536C14.624 23.336 14.128 21.656 14.128 19.496C14.128 17.272 14.624 15.384 15.616 13.832C16.624 12.28 17.856 11.088 19.312 10.256C20.784 9.424 22.248 8.888 23.704 8.648L23.8 9.128C22.776 9.448 21.872 9.864 21.088 10.376C20.32 10.888 19.64 11.68 19.048 12.752C18.472 13.824 18.088 15.248 17.896 17.024C18.232 16.48 18.672 16.08 19.216 15.824C19.776 15.568 20.384 15.44 21.04 15.44ZM20.008 25.856C20.616 25.856 21.12 25.448 21.52 24.632C21.92 23.8 22.12 22.536 22.12 20.84C22.12 19.208 21.928 18.016 21.544 17.264C21.176 16.512 20.688 16.136 20.08 16.136C19.664 16.136 19.24 16.288 18.808 16.592C18.376 16.896 18.04 17.352 17.8 17.96C17.768 18.664 17.752 19.224 17.752 19.64C17.752 21.832 17.968 23.416 18.4 24.392C18.848 25.368 19.384 25.856 20.008 25.856Z" fill="white"/>
</svg>
