<svg width="36" height="39" viewBox="0 0 36 39" fill="none" xmlns="http://www.w3.org/2000/svg">
<rect y="3" width="36" height="36" rx="6" fill="#F2994A"/>
<path d="M18.904 13.256C20.104 13.256 21.088 13.504 21.856 14C22.624 14.496 23.008 15.168 23.008 16.016C23.008 16.928 22.568 17.744 21.688 18.464C20.808 19.184 19.624 19.688 18.136 19.976C19.816 19.912 21.192 20.208 22.264 20.864C23.336 21.504 23.872 22.424 23.872 23.624C23.872 24.792 23.368 25.832 22.36 26.744C21.352 27.672 20.056 28.384 18.472 28.88C16.904 29.376 15.312 29.624 13.696 29.624V29.144C14.752 29.112 15.784 28.872 16.792 28.424C17.816 27.992 18.656 27.368 19.312 26.552C19.968 25.736 20.296 24.768 20.296 23.648C20.296 22.704 20.064 21.928 19.6 21.32C19.152 20.712 18.544 20.376 17.776 20.312C17.552 20.424 17.328 20.52 17.104 20.6C16.896 20.664 16.712 20.696 16.552 20.696C16.248 20.696 16.096 20.584 16.096 20.36C16.096 20.184 16.168 20.056 16.312 19.976C16.456 19.88 16.64 19.832 16.864 19.832C16.96 19.832 17.088 19.848 17.248 19.88C17.424 19.896 17.576 19.912 17.704 19.928C18.936 19.064 19.552 17.992 19.552 16.712C19.552 15.992 19.368 15.464 19 15.128C18.632 14.776 18.104 14.6 17.416 14.6C16.776 14.6 16.184 14.76 15.64 15.08C15.112 15.4 14.664 15.864 14.296 16.472L13.864 16.256C14.36 15.344 15 14.616 15.784 14.072C16.584 13.528 17.624 13.256 18.904 13.256Z" fill="white"/>
</svg>
