<svg width="36" height="39" viewBox="0 0 36 39" fill="none" xmlns="http://www.w3.org/2000/svg">
<rect y="3" width="36" height="36" rx="6" fill="#F2994A"/>
<path d="M23.896 14.12C23.704 14.568 23.312 15.336 22.72 16.424C22.08 17.576 21.56 18.584 21.16 19.448C20.76 20.312 20.408 21.296 20.104 22.4C19.816 23.504 19.672 24.656 19.672 25.856L19.72 26.672C19.768 27.088 19.792 27.464 19.792 27.8C19.792 28.296 19.64 28.712 19.336 29.048C19.032 29.384 18.6 29.552 18.04 29.552C17.464 29.552 17.024 29.36 16.72 28.976C16.432 28.592 16.288 28.08 16.288 27.44C16.288 26.448 16.504 25.44 16.936 24.416C17.368 23.376 17.88 22.416 18.472 21.536C19.08 20.64 19.864 19.56 20.824 18.296C21.016 18.024 21.224 17.744 21.448 17.456C21.672 17.168 21.904 16.856 22.144 16.52H15.76C15.328 16.52 15 16.552 14.776 16.616C14.568 16.68 14.424 16.784 14.344 16.928C14.264 17.072 14.2 17.296 14.152 17.6H13.648C13.648 15.68 13.616 14.312 13.552 13.496C13.904 13.576 15.096 13.616 17.128 13.616H23.896V14.12Z" fill="white"/>
</svg>
